<svg id="e3xmOZFYd541" xmlns="http://www.w3.org/2000/svg" xmlns:xlink="http://www.w3.org/1999/xlink" viewBox="0 0 831 552" shape-rendering="geometricPrecision" text-rendering="geometricPrecision">
<style><![CDATA[
#e3xmOZFYd549_to {animation: e3xmOZFYd549_to__to 2000ms linear infinite normal forwards}@keyframes e3xmOZFYd549_to__to { 0% {transform: translate(640.468979px,195.004188px)} 20% {transform: translate(640.468979px,195.004188px)} 75% {transform: translate(519.511185px,121.066887px)} 100% {transform: translate(519.511185px,121.066887px)}} #e3xmOZFYd549_ts {animation: e3xmOZFYd549_ts__ts 2000ms linear infinite normal forwards}@keyframes e3xmOZFYd549_ts__ts { 0% {transform: scale(0.683905,0.683905)} 20% {transform: scale(0.683905,0.683905)} 75% {transform: scale(1,1)} 100% {transform: scale(1,1)}} #e3xmOZFYd5414_to {animation: e3xmOZFYd5414_to__to 2000ms linear infinite normal forwards}@keyframes e3xmOZFYd5414_to__to { 0% {transform: translate(711.668889px,16.690093px)} 20% {transform: translate(711.668889px,16.690093px);animation-timing-function: cubic-bezier(0.42,0,1,1)} 75% {transform: translate(541.011185px,107.566643px)} 100% {transform: translate(541.011185px,107.566643px)}} #e3xmOZFYd5415_to {animation: e3xmOZFYd5415_to__to 2000ms linear infinite normal forwards}@keyframes e3xmOZFYd5415_to__to { 0% {transform: translate(409.254881px,-250.529863px)} 20% {transform: translate(409.254881px,-250.529863px);animation-timing-function: cubic-bezier(0.42,0,1,1)} 75% {transform: translate(440.956px,-271.518px)} 100% {transform: translate(440.956px,-271.518px)}} #e3xmOZFYd5421_to {animation: e3xmOZFYd5421_to__to 2000ms linear infinite normal forwards}@keyframes e3xmOZFYd5421_to__to { 0% {transform: translate(519.511185px,121.066887px)} 20% {transform: translate(519.511185px,121.066887px)} 75% {transform: translate(370.848201px,64.928866px)} 100% {transform: translate(370.848201px,64.928866px)}} #e3xmOZFYd5421_ts {animation: e3xmOZFYd5421_ts__ts 2000ms linear infinite normal forwards}@keyframes e3xmOZFYd5421_ts__ts { 0% {transform: scale(1,1)} 20% {transform: scale(1,1)} 75% {transform: scale(0.741367,0.741367)} 100% {transform: scale(0.741367,0.741367)}} #e3xmOZFYd5426_to {animation: e3xmOZFYd5426_to__to 2000ms linear infinite normal forwards}@keyframes e3xmOZFYd5426_to__to { 0% {transform: translate(541.011185px,107.566643px)} 20% {transform: translate(541.011185px,107.566643px)} 75% {transform: translate(731.740056px,3.212526px)} 100% {transform: translate(731.740056px,3.212526px)}} #e3xmOZFYd5427_to {animation: e3xmOZFYd5427_to__to 2000ms linear infinite normal forwards}@keyframes e3xmOZFYd5427_to__to { 0% {transform: translate(440.956px,-271.518px)} 20% {transform: translate(440.956px,-271.518px)} 75% {transform: translate(403.231038px,-244.395831px)} 100% {transform: translate(403.231038px,-244.395831px)}} #e3xmOZFYd5437_to {animation: e3xmOZFYd5437_to__to 2000ms linear infinite normal forwards}@keyframes e3xmOZFYd5437_to__to { 0% {transform: translate(509.686539px,317.545594px)} 50% {transform: translate(553.75859px,291.504272px)} 100% {transform: translate(509.69px,317.55px)}} #e3xmOZFYd5442_to {animation: e3xmOZFYd5442_to__to 2000ms linear infinite normal forwards}@keyframes e3xmOZFYd5442_to__to { 0% {transform: translate(526.107071px,232.626915px);animation-timing-function: cubic-bezier(0,0,0.58,1)} 50% {transform: translate(402.999665px,304.431435px)} 100% {transform: translate(526.11px,232.63px)}} #e3xmOZFYd5453_to {animation: e3xmOZFYd5453_to__to 2000ms linear infinite normal forwards}@keyframes e3xmOZFYd5453_to__to { 0% {transform: translate(132.999964px,356.499908px)} 50% {transform: translate(59.21697px,315.679993px)} 100% {transform: translate(133px,356.5px)}}
]]></style>
<path d="M3.51116,152.567L261.511,2.06671c4.5-2.999968,8.5-2.499928,12.5-.00005L404.215,74.9326c4.75,2.6567,4.784,9.4802.061,12.1843L152.363,233.593c-8.5,4.5-16,5.5-27.5,0L3.55689,164.73c-4.72206-2.668-4.7476-9.46-.04573-12.163Z" fill="#1e1e1e"/><path d="M294.511,170.567l258-150.5003c4.5-3,8.5-2.4999,12.5,0L695.215,92.9326c4.75,2.6567,4.784,9.4804.061,12.1844L443.363,251.593c-8.5,4.5-16,5.5-27.5,0L294.557,182.73c-4.722-2.668-4.748-9.46-.046-12.163Z" fill="#2d2d2d"/><path d="M426.511,466.567l258-150.5c4.5-3,8.5-2.5,12.5,0l130.204,72.866c4.75,2.656,4.784,9.48.061,12.184L575.363,547.593c-8.5,4.5-16,5.5-27.5,0L426.557,478.73c-4.722-2.668-4.748-9.46-.046-12.163Z" fill="#1e1e1e"/><path d="M321.511,340.134l258-150.501c4.5-2.999,8.5-2.499,12.5,0l130.204,72.866c4.75,2.657,4.784,9.481.061,12.185L470.363,421.16c-8.5,4.5-16,5.5-27.5,0L321.557,352.297c-4.722-2.668-4.748-9.46-.046-12.163Z" fill="#2d2d2d"/><path d="M3.51116,338.134L261.511,187.633c4.5-2.999,8.5-2.499,12.5,0l130.204,72.866c4.75,2.657,4.784,9.481.061,12.185L152.363,419.16c-8.5,4.5-16,5.5-27.5,0L3.55689,350.297c-4.72206-2.668-4.7476-9.46-.04573-12.163Z" fill="#2d2d2d"/><g mask="url(#e3xmOZFYd5432)"><g><g id="e3xmOZFYd549_to" transform="translate(640.468979,195.004188)"><g id="e3xmOZFYd549_ts" transform="scale(0.683905,0.683905)"><g transform="translate(-519.511185,-121.066887)" mask="url(#e3xmOZFYd5418)"><g><path d="M348.577,161.412L537.111,51.0819c3.289-2.1993,6.212-1.8327,9.135-.0001l95.147,53.4172c3.471,1.948,3.496,6.95.044,8.932L457.351,220.811c-6.212,3.299-11.692,4.032-20.096,0L348.61,170.328c-3.45-1.955-3.469-6.935-.033-8.916Z" fill="#444"/><g mask="url(#e3xmOZFYd5416)"><g><g id="e3xmOZFYd5414_to" transform="translate(711.668889,16.690093)"><path d="M391.629,132.983L583.959,20.1167c3.355-2.2498,6.337-1.8748,9.318-.0001L690.34,74.7618c3.541,1.9923,3.567,7.1096.045,9.1375L502.593,193.747c-6.337,3.375-11.928,4.125-20.501,0l-90.429-51.642c-3.52-2.001-3.54-7.095-.034-9.122Z" transform="translate(-541.011185,-107.566643)" fill="#4e4e4e"/></g><g id="e3xmOZFYd5415_to" transform="translate(409.254881,-250.529863)"><ellipse rx="8.67035" ry="10" transform="rotate(69.996789) scale(1.000001,1.000001) translate(414.374,179.135)" fill="#00e472"/></g></g><mask id="e3xmOZFYd5416" mask-type="alpha" x="-150%" y="-150%" height="400%" width="400%"><path d="M348.577,161.412L537.111,51.0819c3.289-2.1993,6.212-1.8327,9.135-.0001l95.147,53.4172c3.471,1.948,3.496,6.95.044,8.932L457.351,220.811c-6.212,3.299-11.692,4.032-20.096,0L348.61,170.328c-3.45-1.955-3.469-6.935-.033-8.916Z" fill="#444"/></mask></g></g><mask id="e3xmOZFYd5418" mask-type="alpha" x="-150%" y="-150%" height="400%" width="400%"><path d="M294.511,170.567l258-150.5003c4.5-3,8.5-2.4999,12.5,0L695.215,92.9326c4.75,2.6567,4.784,9.4804.061,12.1844L443.363,251.593c-8.5,4.5-16,5.5-27.5,0L294.557,182.73c-4.722-2.668-4.748-9.46-.046-12.163Z" fill="#2d2d2d"/></mask></g></g></g></g><g><g id="e3xmOZFYd5421_to" transform="translate(519.511185,121.066887)"><g id="e3xmOZFYd5421_ts" transform="scale(1,1)"><g transform="translate(-519.511185,-121.066887)" mask="url(#e3xmOZFYd5430)"><g><path d="M348.577,161.412L537.111,51.0819c3.289-2.1993,6.212-1.8327,9.135-.0001l95.147,53.4172c3.471,1.948,3.496,6.95.044,8.932L457.351,220.811c-6.212,3.299-11.692,4.032-20.096,0L348.61,170.328c-3.45-1.955-3.469-6.935-.033-8.916Z" fill="#444"/><g mask="url(#e3xmOZFYd5428)"><g><g id="e3xmOZFYd5426_to" transform="translate(541.011185,107.566643)"><path d="M391.629,132.983L583.959,20.1167c3.355-2.2498,6.337-1.8748,9.318-.0001L690.34,74.7618c3.541,1.9923,3.567,7.1096.045,9.1375L502.593,193.747c-6.337,3.375-11.928,4.125-20.501,0l-90.429-51.642c-3.52-2.001-3.54-7.095-.034-9.122Z" transform="translate(-541.011185,-107.566643)" fill="#4e4e4e"/></g><g id="e3xmOZFYd5427_to" transform="translate(440.956,-271.518)"><ellipse rx="8.67035" ry="10" transform="rotate(69.996789) scale(1.000001,1.000001) translate(414.374,179.135)" fill="#00e472"/></g></g><mask id="e3xmOZFYd5428" mask-type="alpha" x="-150%" y="-150%" height="400%" width="400%"><path d="M348.577,161.412L537.111,51.0819c3.289-2.1993,6.212-1.8327,9.135-.0001l95.147,53.4172c3.471,1.948,3.496,6.95.044,8.932L457.351,220.811c-6.212,3.299-11.692,4.032-20.096,0L348.61,170.328c-3.45-1.955-3.469-6.935-.033-8.916Z" fill="#444"/></mask></g></g><mask id="e3xmOZFYd5430" mask-type="alpha" x="-150%" y="-150%" height="400%" width="400%"><path d="M294.511,170.567l258-150.5003c4.5-3,8.5-2.4999,12.5,0L695.215,92.9326c4.75,2.6567,4.784,9.4804.061,12.1844L443.363,251.593c-8.5,4.5-16,5.5-27.5,0L294.557,182.73c-4.722-2.668-4.748-9.46-.046-12.163Z" fill="#2d2d2d"/></mask></g></g></g></g><mask id="e3xmOZFYd5432" mask-type="alpha" x="-150%" y="-150%" height="400%" width="400%"><path d="M294.511,170.567l258-150.5003c4.5-3,8.5-2.4999,12.5,0L695.215,92.9326c4.75,2.6567,4.784,9.4804.061,12.1844L443.363,251.593c-8.5,4.5-16,5.5-27.5,0L294.557,182.73c-4.722-2.668-4.748-9.46-.046-12.163Z" fill="#2d2d2d"/></mask></g><g mask="url(#e3xmOZFYd5443)"><g><path d="M362.753,285.901L711.985,82.3618c6.091-4.0572,11.505-3.3809,16.92,0L905.15,180.907c6.43,3.593,6.476,12.821.082,16.478L564.24,395.483c-11.506,6.085-21.658,7.438-37.224,0L362.815,302.351c-6.392-3.608-6.427-12.794-.062-16.45Z" fill="#444"/><g id="e3xmOZFYd5437_to" transform="translate(509.686539,317.545594)"><g transform="translate(-509.686538,-317.545593)"><path d="M515.887,256.134l65.164-38.045c1.137-.758,2.147-.632,3.158,0l87.403,49.37c1.2.672,1.208,2.397.015,3.08L608,307.567c-2.147,1.137-4.041,1.39-6.946,0l-85.156-48.358c-1.192-.675-1.199-2.392-.011-3.075Z" transform="translate(32.928083-15.146125)" fill="#4e4e4e"/><path d="M437.887,302.567l65.164-38.045c1.137-.758,2.147-.632,3.158,0l87.403,49.37c1.2.672,1.208,2.397.015,3.081L530,354c-2.147,1.138-4.041,1.39-6.946,0l-85.156-48.358c-1.192-.674-1.199-2.391-.011-3.075Z" transform="translate(32.928083-15.146122)" fill="#4e4e4e"/><path d="M359.887,349l65.164-38.044c1.137-.759,2.147-.632,3.158,0l87.403,49.37c1.2.671,1.208,2.396.015,3.08L452,400.433c-2.147,1.138-4.041,1.391-6.946,0l-85.156-48.358c-1.192-.674-1.199-2.391-.011-3.075Z" transform="translate(32.928083-15.146123)" fill="#4e4e4e"/><path d="M281.887,395.434l65.164-38.045c1.137-.758,2.147-.632,3.158,0l87.403,49.37c1.2.671,1.208,2.396.015,3.08L374,446.866c-2.147,1.138-4.041,1.391-6.946,0l-85.156-48.358c-1.192-.674-1.199-2.391-.011-3.074Z" transform="translate(32.928082-15.146118)" fill="#4e4e4e"/></g></g><g id="e3xmOZFYd5442_to" transform="translate(526.107071,232.626915)"><path d="M485.387,254.608l79.071-45.815c.496-.328.938-.274,1.379,0l.54.426c.294.231.676.413.796.768.112.327-.004.719-.347.914l-78.399,45.374c-.898.472-1.695.593-2.876.073-.097-.043-.159-.141-.159-.247c0-.099-.056-.188-.131-.253-.386-.334-.344-.972.126-1.24Z" transform="translate(-526.107071,-232.626915)" fill="#00e472"/></g></g><mask id="e3xmOZFYd5443" mask-type="alpha" x="-150%" y="-150%" height="400%" width="400%"><path d="M321.511,340.134l258-150.501c4.5-2.999,8.5-2.499,12.5,0l130.204,72.866c4.75,2.657,4.784,9.481.061,12.185L470.363,421.16c-8.5,4.5-16,5.5-27.5,0L321.557,352.297c-4.722-2.668-4.748-9.46-.046-12.163Z" fill="#2d2d2d"/></mask></g><g mask="url(#e3xmOZFYd5457)"><g><path d="M212.047,228.785c.244-.199.495-.394.697-.636.163-.196.351-.372.571-.501c1.713-1.006,3.255-.766,4.798.205l53.36,30.081c1.947,1.097,1.961,3.914.025,5.03l1.944-1c-3.484,1.858-6.558,2.271-11.27,0l-49.714-28.428c-1.794-1.021-1.934-3.505-.411-4.751Z" fill="#444"/><path d="M180.047,248.785c.244-.199.495-.394.697-.636v0c.163-.196.351-.372.571-.501c1.713-1.006,3.255-.766,4.798.205l53.36,30.081c1.947,1.097,1.961,3.914.025,5.03l1.944-1c-3.484,1.858-6.558,2.271-11.27,0l-49.714-28.428c-1.794-1.021-1.934-3.505-.411-4.751Z" fill="#373737"/><path d="M167.047,256.785c.244-.199.495-.394.697-.636v0c.163-.196.351-.372.571-.501c1.713-1.006,3.255-.766,4.798.205l53.36,30.081c1.947,1.097,1.961,3.914.025,5.03l1.944-1c-3.484,1.858-6.558,2.271-11.27,0l-49.714-28.428c-1.794-1.021-1.934-3.505-.411-4.751Z" fill="#373737"/><path d="M198.047,237.785c.244-.199.495-.394.697-.636v0c.163-.196.351-.372.571-.501c1.713-1.006,3.255-.766,4.798.205l41.36,23.081c1.947,1.097,1.961,3.914.025,5.03l1.944-1c-3.484,1.858-6.558,2.271-11.27,0l-37.714-21.428c-1.794-1.021-1.934-3.505-.411-4.751Z" fill="#444"/><path d="M144.047,269.785c.244-.199.495-.394.697-.636v0c.163-.196.351-.372.571-.501c1.713-1.006,3.255-.766,4.798.205l41.36,23.081c1.947,1.097,1.961,3.914.025,5.03l1.944-1c-3.484,1.858-6.558,2.271-11.27,0l-37.714-21.428c-1.794-1.021-1.934-3.505-.411-4.751Z" fill="#00e472"/><path d="M198.81,320.69l87.114-51.025c3.601-2.417,6.803-2.014,10.004,0l104.204,58.707c3.802,2.14,3.829,7.638.049,9.816l-82.243,47.783c-6.803,3.626-12.805,4.431-22.009,0L198.847,330.49c-3.78-2.149-3.8-7.622-.037-9.8Z" fill="#444"/><g id="e3xmOZFYd5453_to" transform="translate(132.999964,356.499908)"><g transform="translate(-132.999964,-356.499908)"><path d="M-23.0723,301.143l59.7592-35.001c2.4705-1.658,4.6666-1.381,6.8626,0l71.4835,40.27c2.608,1.468,2.626,5.239.033,6.734L58.6483,345.922c-4.6666,2.487-8.7842,3.04-15.0977,0l-66.5978-38.057c-2.5925-1.474-2.6065-5.228-.0251-6.722Z" fill="#373737"/><path d="M63.9277,351.143l59.7593-35.001c2.47-1.658,4.666-1.381,6.862,0l71.484,40.27c2.608,1.468,2.626,5.239.033,6.734l-56.418,32.776c-4.666,2.487-8.784,3.04-15.097,0L63.9528,357.865c-2.5925-1.474-2.6065-5.228-.0251-6.722Z" fill="#373737"/><path d="M150.928,401.143l59.759-35.001c2.47-1.658,4.666-1.381,6.862,0l71.484,40.27c2.608,1.468,2.626,5.239.033,6.734l-56.418,32.776c-4.666,2.487-8.784,3.04-15.097,0l-66.598-38.057c-2.593-1.474-2.607-5.228-.025-6.722Z" fill="#373737"/></g></g></g><mask id="e3xmOZFYd5457" mask-type="alpha" x="-150%" y="-150%" height="400%" width="400%"><path d="M3.51116,338.134L261.511,187.633c4.5-2.999,8.5-2.499,12.5,0l130.204,72.866c4.75,2.657,4.784,9.481.061,12.185L152.363,419.16c-8.5,4.5-16,5.5-27.5,0L3.55689,350.297c-4.72206-2.668-4.7476-9.46-.04573-12.163Z" fill="#2d2d2d"/></mask></g></svg>
